<svg xmlns="http://www.w3.org/2000/svg" viewBox="0 0 692.08 213.89"><defs><style>.cls-1{fill:#900;}.cls-2{fill:#fff;}</style></defs><g id="Layer_2" data-name="Layer 2"><g id="OBJECTS"><path class="cls-1" d="M169.13,0H44.76A44.76,44.76,0,0,0,0,44.76V169.13a44.76,44.76,0,0,0,44.76,44.76H169.13a44.76,44.76,0,0,0,44.76-44.76V44.76A44.76,44.76,0,0,0,169.13,0ZM35.34,140.76a6.18,6.18,0,0,1-2.43-8.57L80.12,51.35A6.17,6.17,0,0,1,88.37,49L97,53.65l-42.9,73.48A7.47,7.47,0,0,0,56,136.78l63.33,48.89Zm87.8,45.74L57,135.45A5.79,5.79,0,0,1,55.55,128h0L98.5,54.43l5.86-10a3.63,3.63,0,0,1,5.36-1l9.13,7.06L118,51.86l-5.78,9.91h0L78.19,120a7.18,7.18,0,0,0,.49,7.94l40.57,53.42,3.89,5.11h0Zm2.11,0-.92-1.22h0L80,127a5.46,5.46,0,0,1-.37-6.07h0L113.7,62.56l5.64-9.66.85-1.46,14.24-22.39a2.79,2.79,0,0,1,4.64-.1l6.58,9.47L132.6,61l-.86,1.46-4.33,7.41h0l-21.5,36.82c-.27.47-.52,1-.75,1.45a15.79,15.79,0,0,0-.69,11.12l19.34,62.57,1.24,4,.2.66ZM181.5,97.86c-.43.81-1.12,2-1.63,2.79l-.62,1-52.09,85.79-21.09-68.66a14,14,0,0,1,.91-10.53s0,0,0-.06a14,14,0,0,1,.93-1.91l21.52-36.88,4.2-7.17.85-1.46.85-1.46,6.82-11.67.91-1.56.91-1.57,9.32-16a4.31,4.31,0,0,1,7.84.9L180.77,93h0l.61,2a.33.33,0,0,1,0,.06l.37,1.23A2.65,2.65,0,0,1,181.5,97.86Z"/><path class="cls-2" d="M54.12,127.13,97,53.65,88.37,49a6.17,6.17,0,0,0-8.25,2.33L32.91,132.19a6.18,6.18,0,0,0,2.43,8.57l84,44.91L56,136.78A7.47,7.47,0,0,1,54.12,127.13Z"/><path class="cls-2" d="M125.05,185.87l-1.24-4-19.34-62.57a15.79,15.79,0,0,1,.69-11.12c.23-.49.48-1,.75-1.45l21.5-36.82h0l4.33-7.41L132.6,61l13.05-22.6L139.07,29a2.79,2.79,0,0,0-4.64.1L120.19,51.44l-.85,1.46-5.64,9.66L79.64,120.88h0A5.46,5.46,0,0,0,80,127l44.31,58.35h0l.92,1.22h0Z"/><path class="cls-2" d="M119.25,181.39,78.68,128a7.18,7.18,0,0,1-.49-7.94l34-58.26h0L118,51.86l.85-1.45-9.13-7.06a3.63,3.63,0,0,0-5.36,1l-5.86,10L55.56,128h0A5.79,5.79,0,0,0,57,135.45l66.13,51.05h0Z"/><path class="cls-2" d="M181.42,95a.33.33,0,0,0,0-.06l-.61-2h0L161.16,29.47a4.31,4.31,0,0,0-7.84-.9l-9.32,16-.91,1.57-.91,1.56-6.82,11.67-.85,1.46-.85,1.46-4.2,7.17-21.52,36.88a14,14,0,0,0-.93,1.91s0,0,0,.06a14,14,0,0,0-.91,10.53l21.09,68.66,52.09-85.79.62-1c.51-.82,1.2-2,1.63-2.79a2.65,2.65,0,0,0,.29-1.63Z"/><path class="cls-1" d="M240.43,88.52V86.17A4.46,4.46,0,0,0,243.7,85a8.66,8.66,0,0,0,1.88-3.13l1.74-4.62L262,37.42h1.71l15.85,40.44c.38,1,.8,2.27,1.28,3.83a11.06,11.06,0,0,1,.57,4l2.41-.14,2.42-.14v3.13H269.92V86.17c1.8,0,3-.45,3.56-1.21a3.52,3.52,0,0,0,.64-2.7,12.43,12.43,0,0,0-.71-2.84l-2.49-6.68-18.48.43L250,80.77c-.33,1.14-.63,2-.88,2.7s-.56,1.4-.89,2.2l2.8-.14,2.74-.14v3.13Zm13.08-18.41h16.41l-5-13.57c-.52-1.47-1.06-2.93-1.6-4.37s-1.08-2.91-1.6-4.38h-.14c-.48,1.33-1,2.66-1.46,4l-1.53,4.06Z"/><path class="cls-1" d="M328.2,54.62c-.47-4.46-2-7.91-4.65-10.38a14.25,14.25,0,0,0-10.13-3.7,16.1,16.1,0,0,0-7.07,1.6,17.22,17.22,0,0,0-5.79,4.59,22,22,0,0,0-3.91,7.18,29.23,29.23,0,0,0-1.42,9.45,26.13,26.13,0,0,0,2.55,11.8,20,20,0,0,0,6.9,8A17.17,17.17,0,0,0,314.27,86a21.25,21.25,0,0,0,9.1-2.1,18.48,18.48,0,0,0,7.32-6.07l1.85,1.49a25.19,25.19,0,0,1-6.61,6.47,23,23,0,0,1-7.07,3.09,28.91,28.91,0,0,1-6.44.81,24.54,24.54,0,0,1-9.77-1.91A22.72,22.72,0,0,1,295,82.37a24.13,24.13,0,0,1-5-8,27.73,27.73,0,0,1-1.74-9.92,31.81,31.81,0,0,1,1.53-9.8,26.78,26.78,0,0,1,4.58-8.6,22.05,22.05,0,0,1,7.71-6.11,24.39,24.39,0,0,1,10.84-2.28,26.17,26.17,0,0,1,7.54,1.07A25.12,25.12,0,0,1,327.28,42l-.36-3.84h3.84V54.62Z"/><path class="cls-1" d="M333.53,88.52V86.17A4.46,4.46,0,0,0,336.8,85a8.67,8.67,0,0,0,1.89-3.13q.74-2,1.74-4.62l14.64-39.87h1.7l15.85,40.44c.38,1,.81,2.27,1.28,3.83a11.06,11.06,0,0,1,.57,4l2.42-.14,2.41-.14v3.13H363V86.17c1.8,0,3-.45,3.55-1.21a3.52,3.52,0,0,0,.64-2.7,12.43,12.43,0,0,0-.71-2.84L364,72.74l-18.48.43-2.48,7.6c-.34,1.14-.63,2-.89,2.7s-.56,1.4-.89,2.2l2.81-.14,2.73-.14v3.13Zm13.08-18.41H363l-5-13.57c-.52-1.47-1.05-2.93-1.6-4.37s-1.08-2.91-1.6-4.38h-.14c-.47,1.33-1,2.66-1.46,4s-1,2.68-1.52,4.06Z"/><path class="cls-1" d="M382.36,86.17c1.8-.09,3-.51,3.69-1.24a4.83,4.83,0,0,0,1.11-3.06c.07-1.3.1-2.78.1-4.44V46.73c0-.95,0-1.86.07-2.74s.1-1.67.15-2.38l-2.56.14-2.56.15V38.77l16.77-.07a43.24,43.24,0,0,1,11.73,1.49,25.57,25.57,0,0,1,9.2,4.58,20.47,20.47,0,0,1,6,7.82,27.21,27.21,0,0,1,2.1,11.12,26,26,0,0,1-1.71,9.38A22.55,22.55,0,0,1,421.3,81a24.44,24.44,0,0,1-8.49,5.47,31.63,31.63,0,0,1-11.76,2H382.36Zm11.09-6c0,1.28,0,2.37,0,3.27a18.5,18.5,0,0,1-.18,2.27c1.28,0,2.45.09,3.52.11s2,0,2.7,0h1.39a19.82,19.82,0,0,0,8.35-1.71,18.86,18.86,0,0,0,6.39-4.73,21.64,21.64,0,0,0,4.13-7.1,26.25,26.25,0,0,0,1.45-8.85,25.93,25.93,0,0,0-2.45-11.69,17.38,17.38,0,0,0-7.5-7.68q-5-2.73-12.86-2.73c-1.75,0-3,.35-3.66,1.06a4.49,4.49,0,0,0-1.14,3c-.07,1.28-.1,2.77-.1,4.48Z"/><path class="cls-1" d="M459.33,70.11a8.88,8.88,0,0,0-.85-4.48A3.67,3.67,0,0,0,455.77,64a25.27,25.27,0,0,0-4.9-.14l-5.19.21V80.34q0,1.92,0,3.27a21.15,21.15,0,0,1-.18,2.28L459,85.67a14.6,14.6,0,0,0,5.41-1A7.11,7.11,0,0,0,468,81.27a14.27,14.27,0,0,0,1.28-6.61h2.41l-.42,13.86H434.6V86.17c1.8-.09,3-.51,3.69-1.24a4.83,4.83,0,0,0,1.1-3.06c.07-1.3.11-2.78.11-4.44V46.73c0-.95,0-1.86.07-2.74s.09-1.67.14-2.38l-2.56.14-2.55.15V38.77h34.18l.36,12.44h-2.35a12.79,12.79,0,0,0-1.28-6.37,6.35,6.35,0,0,0-3.45-2.91,13.59,13.59,0,0,0-4.86-.67l-6.12.14a6.33,6.33,0,0,0-3.76,1,4.1,4.1,0,0,0-1.39,2.74,35.37,35.37,0,0,0-.25,4.73V61.23L459,61.3l-.49-6.11h3.12V70.11Z"/><path class="cls-1" d="M505.6,89.23q-3.14-7.11-6.33-14.18T493,60.73q-1-2.28-2-4.59c-.64-1.53-1.25-3.09-1.85-4.65S488,48.36,487.4,46.8q0,.78,0,1.56c0,.52,0,1,0,1.57l-.18,6.14q-.11,3.6-.25,7.68c-.09,2.72-.16,5.45-.21,8.17s-.1,5.3-.14,7.71c-.05,1.05-.09,2.09-.11,3.13s-.08,2-.18,2.91l2.67-.14,2.66-.14v3.13H478V86.17a5,5,0,0,0,3.23-1,4,4,0,0,0,1.32-2.38,20.89,20.89,0,0,0,.35-3.2l1.35-32.4c.05-.95.09-1.9.11-2.85s.06-1.87.11-2.77c-.86,0-1.71.08-2.56.11s-1.71.06-2.56.1v-3h10.87L502.47,67c.61,1.42,1.22,2.85,1.81,4.27s1.21,2.84,1.85,4.26,1.27,2.87,1.88,4.34h.14q.78-1.92,1.85-4.59t1.78-4.58q3.12-7.82,6.5-15.67t6.65-16.24h10.52v2.34a4.9,4.9,0,0,0-2.92.68,4.16,4.16,0,0,0-1.63,2.45,14.45,14.45,0,0,0-.36,4.62l1.85,32.34a21.1,21.1,0,0,1,.14,2.34V85.6c.85,0,1.72-.08,2.59-.1s1.75-.06,2.6-.11v3.13H521.8V86.17a4.87,4.87,0,0,0,3.27-1.06,4.56,4.56,0,0,0,1.31-2.85,25,25,0,0,0,.11-4.55l-1.42-23.45c-.05-.76-.1-1.51-.14-2.27l-.15-2.28c0-.75-.09-1.51-.14-2.27-.14.33-.29.69-.46,1.06s-.32.79-.46,1.21l-16,39.52Z"/><path class="cls-1" d="M560,41.11a5,5,0,0,0-3.66,1.21,4.84,4.84,0,0,0-1.13,3.06c-.07,1.28-.11,2.77-.11,4.48v30.2c0,1.28,0,2.38,0,3.31a20.93,20.93,0,0,1-.18,2.3l2.56-.14,2.55-.14v3.13H544V86.17c1.8-.09,3-.51,3.7-1.24a4.83,4.83,0,0,0,1.1-3.06c.07-1.3.11-2.78.11-4.44V46.73c0-.95,0-1.86.07-2.74s.09-1.67.14-2.38l-2.56.14L544,41.9V38.77h16Z"/><path class="cls-1" d="M563.52,88.52V86.17A4.46,4.46,0,0,0,566.79,85a8.8,8.8,0,0,0,1.88-3.13l1.74-4.62,14.64-39.87h1.71l15.85,40.44c.37,1,.8,2.27,1.28,3.83a10.8,10.8,0,0,1,.56,4l2.42-.14,2.42-.14v3.13H593V86.17c1.8,0,3-.45,3.56-1.21a3.51,3.51,0,0,0,.63-2.7,12.43,12.43,0,0,0-.71-2.84L594,72.74l-18.48.43L573,80.77c-.33,1.14-.63,2-.89,2.7s-.56,1.4-.89,2.2l2.81-.14,2.74-.14v3.13Zm13.07-18.41H593l-5-13.57c-.53-1.47-1.06-2.93-1.6-4.37s-1.08-2.91-1.6-4.38h-.15c-.47,1.33-1,2.66-1.45,4l-1.53,4.06Z"/><path class="cls-1" d="M244.77,166.52v-2.35c1.8-.09,3-.51,3.69-1.24a4.83,4.83,0,0,0,1.1-3.06c.07-1.3.11-2.78.11-4.44v-30.7c0-1,0-1.86.07-2.74s.09-1.67.14-2.38l-2.56.14-2.55.14v-3.12h33l.36,12.44h-2.35a12.2,12.2,0,0,0-1.35-6.37,6.65,6.65,0,0,0-3.55-2.91,14.21,14.21,0,0,0-4.91-.68l-5.18.15c-1.76,0-3,.46-3.63,1.24a5.29,5.29,0,0,0-1.14,3.09c-.09,1.28-.14,2.75-.14,4.41v12.22l12.37.07-.5-6.18h3.13v15h-2.28a8.69,8.69,0,0,0-.88-4.55,3.81,3.81,0,0,0-2.74-1.64,26.36,26.36,0,0,0-4.83-.14l-4.27.21v14.93c0,1.28,0,2.38,0,3.31a20.93,20.93,0,0,1-.18,2.3c.8,0,1.61-.08,2.42-.1s1.61-.06,2.41-.11,1.61-.07,2.42-.07v3.13Z"/><path class="cls-1" d="M276.68,166.52v-2.35A4.46,4.46,0,0,0,280,163a8.8,8.8,0,0,0,1.88-3.13l1.74-4.62,14.64-39.87h1.71l15.85,40.44c.37,1,.8,2.27,1.27,3.83a10.63,10.63,0,0,1,.57,4l2.42-.14,2.42-.14v3.13H306.17v-2.35c1.8,0,3-.45,3.55-1.21a3.47,3.47,0,0,0,.64-2.7,12.43,12.43,0,0,0-.71-2.84l-2.48-6.68-18.48.43-2.49,7.6c-.33,1.14-.63,2-.89,2.7s-.56,1.4-.89,2.2l2.81-.14,2.74-.14v3.13Zm13.07-18.41h16.42l-5.05-13.57c-.52-1.47-1.05-2.93-1.59-4.37s-1.08-2.91-1.6-4.38h-.15c-.47,1.33-1,2.66-1.45,4l-1.53,4.06Z"/><path class="cls-1" d="M364.45,132.62q-.72-6.69-4.66-10.38a14.22,14.22,0,0,0-10.12-3.7,16.14,16.14,0,0,0-7.08,1.6,17.42,17.42,0,0,0-5.79,4.59,22.2,22.2,0,0,0-3.91,7.18,29.23,29.23,0,0,0-1.42,9.45,26,26,0,0,0,2.56,11.8,20,20,0,0,0,6.89,8,17.18,17.18,0,0,0,9.6,2.84,21.25,21.25,0,0,0,9.1-2.1,18.48,18.48,0,0,0,7.32-6.07l1.84,1.49a25,25,0,0,1-6.61,6.47,22.9,22.9,0,0,1-7.07,3.09,28.83,28.83,0,0,1-6.43.81,24.54,24.54,0,0,1-9.77-1.91,22.86,22.86,0,0,1-7.68-5.37,24.27,24.27,0,0,1-5-8,27.73,27.73,0,0,1-1.74-9.92,32.11,32.11,0,0,1,1.52-9.8,26.8,26.8,0,0,1,4.59-8.6,22.05,22.05,0,0,1,7.71-6.11,24.36,24.36,0,0,1,10.84-2.28,26.11,26.11,0,0,1,7.53,1.07,25,25,0,0,1,6.82,3.27l-.35-3.84H367v16.49Z"/><path class="cls-1" d="M390.81,119.11a5,5,0,0,0-3.66,1.21,4.84,4.84,0,0,0-1.13,3.06c-.07,1.28-.11,2.77-.11,4.47v30.21c0,1.28,0,2.38,0,3.31a19,19,0,0,1-.17,2.3l2.56-.14,2.55-.14v3.13h-16v-2.35c1.8-.09,3-.51,3.7-1.24a4.83,4.83,0,0,0,1.1-3.06c.07-1.3.11-2.78.11-4.44v-30.7c0-1,0-1.86.07-2.74s.09-1.67.14-2.38l-2.56.14-2.56.14v-3.12h16Z"/><path class="cls-1" d="M398.63,166.52v-2.35c1.8-.09,3-.51,3.7-1.24a4.83,4.83,0,0,0,1.1-3.06c.07-1.3.11-2.78.11-4.44v-30.7c0-1,0-1.86.07-2.74s.09-1.67.14-2.38l-2.56.14-2.56.14v-3.12h16v2.34a5,5,0,0,0-3.66,1.21,4.84,4.84,0,0,0-1.13,3.06c-.08,1.28-.11,2.77-.11,4.47v30.49c0,1.28,0,2.37,0,3.27a19.09,19.09,0,0,1-.17,2.28l13.29-.22a8.48,8.48,0,0,0,6.78-2.84c1.54-1.85,2.31-4.85,2.31-9h2.42l-.43,14.71Z"/><path class="cls-1" d="M455.7,119.11a5,5,0,0,0-3.66,1.21,4.84,4.84,0,0,0-1.14,3.06c-.07,1.28-.1,2.77-.1,4.47v30.21c0,1.28,0,2.38,0,3.31a16.92,16.92,0,0,1-.18,2.3l2.56-.14,2.56-.14v3.13h-16v-2.35c1.8-.09,3-.51,3.7-1.24a4.83,4.83,0,0,0,1.1-3.06c.07-1.3.1-2.78.1-4.44v-30.7c0-1,0-1.86.08-2.74s.09-1.67.14-2.38l-2.56.14-2.56.14v-3.12h16Z"/><path class="cls-1" d="M500.76,131.76a28.09,28.09,0,0,0-.85-7,7.35,7.35,0,0,0-2.74-4.16,9.39,9.39,0,0,0-5.65-1.31h-6l-.07,38.73c0,1.28,0,2.38,0,3.31a19,19,0,0,1-.17,2.3l2.95-.14,2.94-.14v3.13h-16.7v-2.35c1.8-.09,3-.52,3.66-1.28a5,5,0,0,0,1.07-3.09c.07-1.3.11-2.76.11-4.37l.07-36-7.32.07q-4.49,0-6.33,3c-1.23,2-1.85,5.1-1.85,9.31h-2.63l.43-15H503l.43,15Z"/><path class="cls-1" d="M503,166.52v-2.35a4.45,4.45,0,0,0,3.27-1.13,8.67,8.67,0,0,0,1.89-3.13q.74-2,1.74-4.62l14.64-39.87h1.7l15.85,40.44c.38,1,.81,2.27,1.28,3.83a10.84,10.84,0,0,1,.57,4l2.42-.14,2.41-.14v3.13H532.46v-2.35c1.8,0,3-.45,3.55-1.21a3.52,3.52,0,0,0,.64-2.7,12.43,12.43,0,0,0-.71-2.84l-2.49-6.68-18.47.43-2.49,7.6c-.33,1.14-.63,2-.89,2.7s-.56,1.4-.89,2.2l2.81-.14,2.73-.14v3.13ZM516,148.11h16.42l-5.05-13.57c-.52-1.47-1-2.93-1.6-4.37s-1.07-2.91-1.6-4.38h-.14c-.47,1.33-1,2.66-1.45,4l-1.53,4.06Z"/><path class="cls-1" d="M587.33,131.76a28,28,0,0,0-.86-7,7.33,7.33,0,0,0-2.73-4.16,9.41,9.41,0,0,0-5.65-1.31h-6L572,158.06c0,1.28,0,2.38,0,3.31a18.71,18.71,0,0,1-.18,2.3l3-.14,2.95-.14v3.13H561v-2.35c1.8-.09,3-.52,3.66-1.28a5,5,0,0,0,1.06-3.09c.08-1.3.11-2.76.11-4.37l.07-36-7.32.07q-4.47,0-6.32,3c-1.24,2-1.85,5.1-1.85,9.31h-2.63l.43-15H589.6l.43,15Z"/><path class="cls-1" d="M620.23,167.65a26.94,26.94,0,0,1-11.58-2.27,21.55,21.55,0,0,1-7.86-6.08,25.52,25.52,0,0,1-4.44-8.42,31.2,31.2,0,0,1-1.42-9.24,29.32,29.32,0,0,1,1.49-9.06,26.53,26.53,0,0,1,4.59-8.42,23.12,23.12,0,0,1,7.74-6.18,23.89,23.89,0,0,1,10.91-2.35A25.21,25.21,0,0,1,631,118a22.65,22.65,0,0,1,7.86,6.21,27.51,27.51,0,0,1,4.62,8.43,28.42,28.42,0,0,1,1.52,9,28.75,28.75,0,0,1-1.49,9,26.6,26.6,0,0,1-4.58,8.46,23.07,23.07,0,0,1-7.71,6.22A24,24,0,0,1,620.23,167.65Zm.14-2.91a15.18,15.18,0,0,0,7.68-1.88,16.61,16.61,0,0,0,5.44-5.05,24.21,24.21,0,0,0,3.27-7,28.57,28.57,0,0,0,1.1-7.79,32.67,32.67,0,0,0-1.21-8.74,28,28,0,0,0-3.55-7.89,19.16,19.16,0,0,0-5.8-5.72,14.47,14.47,0,0,0-7.85-2.17,15.06,15.06,0,0,0-7.71,1.92,16.73,16.73,0,0,0-5.47,5.08,23.76,23.76,0,0,0-3.27,7,28.34,28.34,0,0,0-1.1,7.85,32.48,32.48,0,0,0,1.1,8.18,29,29,0,0,0,3.37,8,18.9,18.9,0,0,0,5.76,6A14.78,14.78,0,0,0,620.37,164.74Z"/><path class="cls-1" d="M651.36,166.52v-2.35c1.8-.09,3-.51,3.7-1.24a4.83,4.83,0,0,0,1.1-3.06c.07-1.3.1-2.78.1-4.44v-30.7c0-1,0-1.86.08-2.74s.09-1.67.14-2.38l-2.56.14-2.56.14v-3.12l8.07-.14q4.08-.07,8.21.07a34.26,34.26,0,0,1,11.12,1.6,12.59,12.59,0,0,1,6.22,4.33,11.49,11.49,0,0,1,2,6.79,14.89,14.89,0,0,1-1,5.65,12.12,12.12,0,0,1-4,5.15,19.81,19.81,0,0,1-8.28,3.41,10.09,10.09,0,0,1,2.48,2.56c.72,1,1.52,2.25,2.42,3.63l4.83,7.6c.81,1.28,1.59,2.43,2.35,3.45a8.94,8.94,0,0,0,2.63,2.41,7,7,0,0,0,3.69.89v2.35h-9a25.93,25.93,0,0,1-3.45-3.7q-1.38-1.84-2.88-4.19L672,151c-.61-1-1.31-2.14-2.09-3.44a14.39,14.39,0,0,0-2.67-3.31c-.76,0-1.55.07-2.38.07s-1.65,0-2.45-.07v13.79c0,1.28,0,2.38,0,3.31a19,19,0,0,1-.17,2.3c.56,0,1.13-.08,1.7-.1s1.14-.06,1.71-.11,1.13-.07,1.7-.07v3.13Zm15.49-24.88a21,21,0,0,0,6.86-1.28,9.68,9.68,0,0,0,4.66-3.62,11.42,11.42,0,0,0,1.7-6.54,13.86,13.86,0,0,0-.74-4.73A8.08,8.08,0,0,0,677,122.1a10.25,10.25,0,0,0-4-2,21.31,21.31,0,0,0-5.69-.67c-1.75,0-3,.35-3.66,1.06a4.49,4.49,0,0,0-1.14,3c-.07,1.26-.1,2.74-.1,4.44V141.5l2.17.14A16.57,16.57,0,0,0,666.85,141.64Z"/></g></g></svg>